<?xml version="1.0" encoding="utf-8"?>
<!-- Generator: Adobe Illustrator 24.3.0, SVG Export Plug-In . SVG Version: 6.00 Build 0)  -->
<svg version="1.1" id="Layer_1" xmlns="http://www.w3.org/2000/svg" xmlns:xlink="http://www.w3.org/1999/xlink" x="0px" y="0px"
	 viewBox="0 0 180 70" style="enable-background:new 0 0 180 70;" xml:space="preserve">
<style type="text/css">
	.st0{fill:#4A4942;}
	.st1{fill:url(#SVGID_1_);}
</style>
<desc>Created with Sketch.</desc>
<g>
	<g>
		<path class="st0" d="M77.6,25.5h-0.8c-0.2,0-0.3,0.1-0.4,0.2c-0.1,0.1-0.1,0.2-0.1,0.4l0,8.9c0,0.1,0,0.2,0.1,0.3
			c0.1,0.1,0.2,0.2,0.4,0.2h0.8c0.1,0,0.3-0.1,0.4-0.2c0.1-0.1,0.2-0.2,0.2-0.4V26c0-0.1-0.1-0.3-0.2-0.4
			C77.9,25.6,77.7,25.5,77.6,25.5z"/>
		<path class="st0" d="M80.7,35.4c0.2,0,0.4-0.1,0.5-0.2c0-0.1,0.1-0.2,0.1-0.4v-3.1c0.4-0.2,0.8-0.4,1.2-0.6
			c0.3-0.2,0.7-0.4,1.1-0.6l1.7,4.5c0,0.1,0.1,0.2,0.1,0.2c0.1,0.1,0.2,0.1,0.4,0.1h0.9c0.2,0,0.4-0.1,0.5-0.2
			c0.1-0.1,0.1-0.2,0-0.5c-0.2-0.5-0.4-1.1-0.6-1.6c-0.2-0.5-0.4-1.1-0.6-1.6c-0.1-0.3-0.2-0.7-0.4-1c-0.1-0.3-0.2-0.6-0.3-0.9
			c0.3-0.2,0.6-0.5,0.8-0.8c0.2-0.3,0.4-0.7,0.4-1.2c0-0.3-0.1-0.6-0.2-0.8c-0.1-0.3-0.3-0.5-0.5-0.7c-0.2-0.2-0.4-0.4-0.7-0.5
			c-0.3-0.1-0.5-0.2-0.8-0.2h-4.3c-0.1,0-0.3,0.1-0.4,0.2c-0.1,0.1-0.2,0.2-0.2,0.4l0,8.9c0,0.1,0,0.2,0.1,0.4
			c0.1,0.1,0.2,0.2,0.4,0.2H80.7z M81.2,27.4h3c0.1,0,0.2,0,0.3,0.1c0.1,0.1,0.1,0.1,0.1,0.2c0,0.1,0,0.1,0,0.2l0,0
			c0,0-0.1,0.1-0.2,0.2c-0.1,0.1-0.3,0.2-0.5,0.3c-0.2,0.1-0.4,0.2-0.7,0.4c-0.2,0.1-0.5,0.3-0.7,0.4c-0.2,0.1-0.5,0.2-0.7,0.4
			c-0.1,0.1-0.3,0.1-0.4,0.2V27.4z"/>
		<path class="st0" d="M94.6,35.4c0.3,0,0.4-0.1,0.5-0.2c0-0.1,0.1-0.2,0.1-0.4v-0.7c0-0.3,0-0.4-0.1-0.5c-0.1-0.1-0.2-0.1-0.5-0.1
			H90v-2.4h3.9c0.1,0,0.3-0.1,0.4-0.2c0.1-0.1,0.1-0.2,0.1-0.4v-0.8c0-0.1,0-0.3-0.1-0.4c-0.1-0.1-0.2-0.2-0.4-0.2H90v-1.9h4.4
			c0.3,0,0.4,0,0.5-0.1C95,27.2,95,27,95,26.8v-0.7c0-0.1,0-0.3-0.1-0.4c-0.1-0.2-0.2-0.2-0.5-0.2h-5.8c-0.1,0-0.3,0-0.4,0.1
			c-0.1,0.1-0.2,0.2-0.2,0.4l0,8.9c0,0.1,0,0.3,0.1,0.4c0.1,0.1,0.2,0.1,0.4,0.1H94.6z"/>
		<path class="st0" d="M102.5,35.2c0-0.1,0.1-0.2,0.1-0.4v-0.7c0-0.3,0-0.4-0.1-0.5c-0.1-0.1-0.2-0.1-0.5-0.1h-3.9v-7.5
			c0-0.1,0-0.3-0.1-0.4c-0.1-0.2-0.2-0.2-0.5-0.2h-0.8c-0.3,0-0.5,0.2-0.5,0.5l0,8.9c0,0.3,0.2,0.5,0.5,0.5h5.3
			C102.3,35.4,102.4,35.3,102.5,35.2z"/>
		<path class="st0" d="M110.9,35.4c0.3,0,0.5-0.2,0.5-0.5v-0.1c0,0,0-0.1,0-0.1l-3.1-8.8c0-0.1-0.1-0.2-0.1-0.2
			c-0.1-0.1-0.2-0.2-0.4-0.2h-1.1c-0.2,0-0.3,0-0.4,0.1c-0.1,0.1-0.1,0.2-0.2,0.3c0,0.1-0.1,0.3-0.2,0.6c-0.1,0.3-0.2,0.7-0.4,1.1
			c-0.2,0.4-0.3,0.9-0.5,1.4c-0.2,0.5-0.4,1.1-0.5,1.6c-0.2,0.5-0.4,1.1-0.5,1.6c-0.2,0.5-0.3,1-0.5,1.3l-0.3,0.9
			c-0.1,0.4-0.1,0.4-0.1,0.4c0,0.2,0.1,0.3,0.2,0.4c0.1,0.1,0.2,0.1,0.4,0.1h0.8c0.2,0,0.3,0,0.4-0.1c0-0.1,0.1-0.1,0.1-0.3l0.6-1.8
			l2.9-1.3l1,3.1c0,0.1,0.1,0.2,0.1,0.2c0.1,0.1,0.2,0.1,0.4,0.1H110.9z M106.2,31.3l1.1-3.3l0.8,2.5L106.2,31.3z"/>
		<path class="st0" d="M118.4,35.4h0.8c0.1,0,0.3-0.1,0.4-0.2c0.1-0.1,0.2-0.2,0.2-0.4V26c0-0.1-0.1-0.3-0.2-0.4
			c-0.1-0.1-0.2-0.2-0.4-0.2h-0.8c-0.1,0-0.3,0.1-0.4,0.2c-0.1,0.1-0.2,0.2-0.2,0.4v5.6l-3.9-5.9l0,0c-0.1-0.2-0.2-0.2-0.4-0.2h-0.9
			c-0.2,0-0.3,0.1-0.4,0.2c-0.1,0.1-0.1,0.2-0.1,0.4l0,8.9c0,0.1,0,0.2,0.1,0.3c0.1,0.1,0.2,0.2,0.4,0.2h0.8c0.1,0,0.3-0.1,0.4-0.2
			c0.1-0.1,0.2-0.2,0.2-0.4v-5.6c0.3,0.4,0.6,0.8,0.8,1.2c0.3,0.5,0.7,1,1,1.5c0.3,0.5,0.7,1,1,1.5c0.3,0.5,0.7,1,1.1,1.6
			C118.1,35.3,118.2,35.4,118.4,35.4z"/>
		<path class="st0" d="M121.2,35.3c0.1,0.1,0.2,0.1,0.4,0.1h3.4c0.5,0,1.1-0.1,1.5-0.3c0.5-0.2,0.9-0.5,1.3-0.8
			c0.4-0.4,0.6-0.8,0.9-1.3c0.2-0.5,0.3-1,0.3-1.5v-2c0-0.5-0.1-1.1-0.3-1.5c-0.2-0.5-0.5-0.9-0.9-1.3c-0.4-0.4-0.8-0.6-1.3-0.8
			c-0.5-0.2-1-0.3-1.5-0.3h-3.4c-0.1,0-0.3,0.1-0.4,0.2c-0.1,0.1-0.2,0.2-0.2,0.4l0,8.9C121,35.1,121.1,35.2,121.2,35.3z
			 M122.9,27.4h2.1c0.3,0,0.6,0.1,0.8,0.2c0.3,0.1,0.5,0.3,0.7,0.5c0.2,0.2,0.3,0.4,0.5,0.7c0.1,0.3,0.2,0.5,0.2,0.8v2
			c0,0.3-0.1,0.6-0.2,0.8c-0.1,0.2-0.3,0.5-0.5,0.7c-0.2,0.2-0.4,0.3-0.7,0.5c-0.3,0.1-0.5,0.2-0.8,0.2h-2.1V27.4z"/>
		<path class="st0" d="M130.3,29.2h0.7c0.1,0,0.3-0.1,0.4-0.2c0.1-0.1,0.2-0.2,0.2-0.4V26c0-0.1-0.1-0.3-0.2-0.4
			c-0.1-0.1-0.2-0.1-0.4-0.1h-0.7c-0.1,0-0.2,0-0.4,0.1c-0.1,0.1-0.2,0.2-0.2,0.4v2.7c0,0.1,0.1,0.3,0.2,0.4
			C130,29.1,130.1,29.2,130.3,29.2z"/>
		<path class="st0" d="M138.6,34.8c0.1-0.1,0.3-0.3,0.4-0.5c0.1-0.2,0.2-0.4,0.3-0.6c0.1-0.2,0.1-0.5,0.2-0.7c0-0.2,0.1-0.5,0.1-0.7
			c0-0.4-0.1-0.8-0.3-1.1c-0.2-0.3-0.4-0.6-0.7-0.7c-0.1-0.1-0.3-0.2-0.4-0.2c-0.1-0.1-0.3-0.1-0.5-0.2c-0.2-0.1-0.4-0.1-0.6-0.2
			c-0.3-0.1-0.6-0.2-0.9-0.3l-1.4-0.4c-0.2,0-0.3-0.1-0.5-0.3c-0.1-0.1-0.2-0.2-0.2-0.4c0-0.1,0-0.3,0-0.4h0c0-0.1,0.1-0.3,0.2-0.4
			c0.1-0.1,0.2-0.2,0.3-0.3c0.1-0.1,0.2-0.2,0.4-0.2c0.1,0,0.3-0.1,0.4-0.1h0.9c0.4,0,0.6,0.1,0.8,0.3c0.2,0.2,0.3,0.5,0.3,1
			c0,0.1,0.1,0.2,0.1,0.3c0.1,0.1,0.2,0.2,0.4,0.2h0.8c0.2,0,0.4-0.1,0.4-0.2c0-0.1,0.1-0.2,0.1-0.4c0-0.5-0.1-0.9-0.2-1.3
			c-0.2-0.4-0.4-0.7-0.7-1c-0.3-0.2-0.6-0.4-0.9-0.5c-0.3-0.1-0.7-0.2-1.1-0.2h-0.9c-0.4,0-0.7,0.1-1,0.2c-0.3,0.1-0.6,0.3-0.9,0.5
			c-0.3,0.2-0.5,0.5-0.7,0.8c-0.2,0.3-0.3,0.6-0.4,1l0,0c0,0.2-0.1,0.3-0.1,0.4c0,0.1,0,0.3,0,0.4v0.2c0,0.4,0.1,0.8,0.3,1.1
			c0.2,0.3,0.5,0.5,0.8,0.7c0.3,0.2,0.7,0.3,1.1,0.5c0.4,0.1,0.8,0.2,1.2,0.3c0.4,0.1,0.8,0.2,1.2,0.3c0.3,0.1,0.6,0.2,0.7,0.3
			c0,0,0.1,0.1,0.1,0.1c0,0.1,0,0.1,0.1,0.2c0,0.1,0,0.1,0,0.2c0,0.1,0,0.1,0,0.2c0,0,0,0.1,0,0.1c0,0,0,0.1,0,0.1
			c-0.1,0.3-0.2,0.5-0.4,0.7c-0.3,0.2-0.6,0.3-0.9,0.3h-0.9c-0.3,0-0.5-0.1-0.8-0.3c-0.2-0.2-0.4-0.4-0.4-0.6c0-0.1,0-0.1,0-0.2
			c0,0,0-0.1,0-0.1v-0.2c0-0.1,0-0.1,0-0.2c-0.1-0.3-0.2-0.4-0.5-0.4h-0.8c-0.2,0-0.4,0.1-0.5,0.2c0,0.1-0.1,0.2-0.1,0.3v0
			c0,0.1,0,0.3,0,0.4c0,0.1,0,0.3,0.1,0.6c0.1,0.3,0.2,0.6,0.4,0.8c0.3,0.4,0.6,0.8,1.1,1c0.5,0.3,1,0.4,1.5,0.4h0.9
			c0.4,0,0.9-0.1,1.3-0.2C138,35.3,138.3,35.1,138.6,34.8z"/>
		<path class="st0" d="M84.7,39c0-0.1-0.1-0.2-0.1-0.2c-0.1-0.1-0.2-0.2-0.4-0.2h-1.1c-0.2,0-0.3,0-0.4,0.1
			c-0.1,0.1-0.1,0.2-0.2,0.3c0,0.1-0.1,0.3-0.2,0.6c-0.1,0.3-0.2,0.7-0.4,1.1s-0.3,0.9-0.5,1.4c-0.2,0.5-0.4,1.1-0.5,1.6
			c-0.2,0.5-0.4,1.1-0.5,1.6c-0.2,0.5-0.3,0.9-0.5,1.3l-0.3,0.9C79.5,48,79.5,48,79.5,48c0,0.1,0.1,0.3,0.2,0.4
			c0.1,0.1,0.2,0.1,0.4,0.1h0.8c0.2,0,0.3,0,0.4-0.1c0-0.1,0.1-0.1,0.1-0.3l0.6-1.8l2.9-1.3l1,3.1c0,0.1,0.1,0.2,0.1,0.2
			c0.1,0.1,0.2,0.1,0.4,0.1h0.9c0.3,0,0.5-0.2,0.5-0.5v-0.1c0,0,0-0.1,0-0.1L84.7,39z M82.6,44.4l1.1-3.3l0.8,2.5L82.6,44.4z"/>
		<path class="st0" d="M149.6,39c0-0.1-0.1-0.2-0.1-0.2c-0.1-0.1-0.2-0.2-0.4-0.2H148c-0.2,0-0.3,0-0.4,0.1
			c-0.1,0.1-0.1,0.2-0.2,0.3c0,0.1-0.1,0.3-0.2,0.6c-0.1,0.3-0.2,0.7-0.4,1.1c-0.2,0.4-0.3,0.9-0.5,1.4c-0.2,0.5-0.4,1.1-0.5,1.6
			c-0.2,0.5-0.4,1.1-0.5,1.6c-0.2,0.5-0.3,0.9-0.5,1.3l-0.3,0.9c-0.1,0.4-0.1,0.4-0.1,0.4c0,0.1,0.1,0.3,0.2,0.4
			c0.1,0.1,0.2,0.1,0.4,0.1h0.8c0.2,0,0.3,0,0.4-0.1c0-0.1,0.1-0.1,0.1-0.3l0.6-1.8l2.9-1.3l1,3.1c0,0.1,0.1,0.2,0.1,0.2
			c0.1,0.1,0.2,0.1,0.4,0.1h0.9c0.3,0,0.5-0.2,0.5-0.5v-0.1c0,0,0-0.1,0-0.1L149.6,39z M147.5,44.4l1.1-3.3l0.8,2.5L147.5,44.4z"/>
		<path class="st0" d="M95.6,38.6h-0.8c-0.1,0-0.3,0.1-0.4,0.2c-0.1,0.1-0.2,0.2-0.2,0.4v5.6l-3.9-5.9l0,0c-0.1-0.2-0.2-0.2-0.4-0.2
			H89c-0.2,0-0.3,0.1-0.4,0.2c-0.1,0.1-0.1,0.2-0.1,0.4l0,8.9c0,0.1,0,0.2,0.1,0.3c0.1,0.1,0.2,0.2,0.4,0.2h0.8
			c0.1,0,0.3-0.1,0.4-0.2c0.1-0.1,0.2-0.2,0.2-0.4v-5.6c0.3,0.4,0.6,0.8,0.8,1.2c0.3,0.5,0.7,1,1,1.5c0.3,0.5,0.7,1,1,1.5
			c0.3,0.5,0.7,1,1.1,1.6c0.1,0.2,0.3,0.2,0.5,0.2h0.8c0.1,0,0.3-0.1,0.4-0.2c0.1-0.1,0.2-0.2,0.2-0.4v-8.9c0-0.1-0.1-0.3-0.2-0.4
			C95.9,38.6,95.8,38.6,95.6,38.6z"/>
		<path class="st0" d="M104.9,44.5h-0.8c-0.3,0-0.5,0.2-0.5,0.4l0,0c0,0.2-0.1,0.3-0.1,0.5c-0.1,0.2-0.1,0.3-0.3,0.5
			c-0.2,0.3-0.5,0.5-0.8,0.7c-0.6,0.3-1.3,0.3-1.9,0.1c-0.3-0.1-0.5-0.3-0.7-0.5c-0.2-0.2-0.4-0.4-0.5-0.7c-0.1-0.3-0.2-0.6-0.2-0.9
			v-2.1c0-0.3,0.1-0.6,0.2-0.9c0.1-0.3,0.3-0.5,0.5-0.7c0.2-0.2,0.4-0.4,0.7-0.5c0.6-0.3,1.3-0.2,1.9,0.1c0.3,0.2,0.6,0.4,0.8,0.7
			c0.1,0.1,0.2,0.3,0.2,0.4c0.1,0.2,0.1,0.3,0.2,0.5c0,0.1,0.1,0.2,0.2,0.2c0.1,0.1,0.2,0.1,0.3,0.1h0.8c0.2,0,0.3-0.1,0.4-0.2
			c0.1-0.1,0.1-0.2,0.1-0.3l0,0c0,0,0,0,0,0c0,0,0-0.1,0-0.1l0,0c-0.1-0.5-0.3-0.9-0.5-1.3c-0.2-0.4-0.5-0.8-0.9-1.1
			c-0.3-0.3-0.7-0.5-1.2-0.7c-0.4-0.2-0.9-0.3-1.4-0.3c-0.6,0-1.1,0.1-1.6,0.3c-0.5,0.2-0.9,0.5-1.3,0.9c-0.4,0.4-0.7,0.8-0.9,1.3
			c-0.2,0.5-0.3,1-0.3,1.6v2.1c0,0.6,0.1,1.1,0.3,1.6c0.2,0.5,0.5,0.9,0.9,1.3c0.4,0.4,0.8,0.7,1.3,0.9c0.5,0.2,1,0.3,1.6,0.3
			c0.4,0,0.8-0.1,1.2-0.2c0.4-0.1,0.8-0.3,1.1-0.6c0.3-0.3,0.6-0.6,0.9-0.9c0.3-0.3,0.5-0.7,0.6-1.1c0-0.1,0.1-0.2,0.1-0.4
			c0-0.1,0.1-0.3,0.1-0.4c0-0.1,0-0.2-0.1-0.4C105.2,44.6,105.1,44.5,104.9,44.5z"/>
		<path class="st0" d="M107.9,38.6h-0.8c-0.2,0-0.3,0.1-0.4,0.2c-0.1,0.1-0.1,0.2-0.1,0.4l0,8.9c0,0.1,0,0.2,0.1,0.3
			c0.1,0.1,0.2,0.2,0.4,0.2h0.8c0.1,0,0.3-0.1,0.4-0.2c0.1-0.1,0.2-0.2,0.2-0.4v-8.9c0-0.1-0.1-0.3-0.2-0.4
			C108.2,38.6,108.1,38.6,107.9,38.6z"/>
		<path class="st0" d="M116.2,46.6h-4.6v-2.4h3.9c0.1,0,0.3-0.1,0.4-0.2c0.1-0.1,0.1-0.2,0.1-0.4v-0.8c0-0.1,0-0.3-0.1-0.4
			c-0.1-0.1-0.2-0.2-0.4-0.2h-3.9v-1.9h4.4c0.3,0,0.4,0,0.5-0.1c0.1-0.1,0.1-0.2,0.1-0.5v-0.7c0-0.1,0-0.3-0.1-0.4
			c-0.1-0.2-0.2-0.2-0.5-0.2h-5.8c-0.1,0-0.3,0-0.4,0.1c-0.1,0.1-0.2,0.2-0.2,0.4l0,8.9c0,0.1,0,0.3,0.1,0.4
			c0.1,0.1,0.2,0.1,0.4,0.1h6c0.3,0,0.4-0.1,0.5-0.2c0-0.1,0.1-0.2,0.1-0.4v-0.7c0-0.3,0-0.4-0.1-0.5
			C116.6,46.7,116.5,46.6,116.2,46.6z"/>
		<path class="st0" d="M124.9,38.6h-0.8c-0.1,0-0.3,0.1-0.4,0.2c-0.1,0.1-0.2,0.2-0.2,0.4v5.6l-3.9-5.9l0,0
			c-0.1-0.2-0.2-0.2-0.4-0.2h-0.9c-0.2,0-0.3,0.1-0.4,0.2c-0.1,0.1-0.1,0.2-0.1,0.4l0,8.9c0,0.1,0,0.2,0.1,0.3
			c0.1,0.1,0.2,0.2,0.4,0.2h0.8c0.1,0,0.3-0.1,0.4-0.2c0.1-0.1,0.2-0.2,0.2-0.4v-5.6c0.3,0.4,0.6,0.8,0.8,1.2c0.3,0.5,0.7,1,1,1.5
			c0.3,0.5,0.7,1,1,1.5c0.3,0.5,0.7,1,1.1,1.6c0.1,0.2,0.3,0.2,0.5,0.2h0.8c0.1,0,0.3-0.1,0.4-0.2c0.1-0.1,0.2-0.2,0.2-0.4v-8.9
			c0-0.1-0.1-0.3-0.2-0.4C125.2,38.6,125.1,38.6,124.9,38.6z"/>
		<path class="st0" d="M133.1,38.6h-6.4c-0.2,0-0.4,0.1-0.5,0.2c0,0.1-0.1,0.2-0.1,0.4v0.6c0,0.2,0,0.4,0.1,0.5
			c0.1,0.1,0.2,0.1,0.5,0.1h2.2v7.5c0,0.1,0,0.3,0.1,0.4c0.1,0.2,0.2,0.2,0.5,0.2h0.8c0.2,0,0.4-0.1,0.5-0.2c0-0.1,0.1-0.2,0.1-0.4
			v-7.5h2.2c0.3,0,0.4,0,0.5-0.1c0.1-0.1,0.1-0.2,0.1-0.5v-0.6c0-0.1,0-0.3-0.1-0.4C133.5,38.7,133.3,38.6,133.1,38.6z"/>
		<path class="st0" d="M143.2,46.6h-4.6v-2.4h3.9c0.1,0,0.3-0.1,0.4-0.2c0.1-0.1,0.1-0.2,0.1-0.4v-0.8c0-0.1,0-0.3-0.1-0.4
			c-0.1-0.1-0.2-0.2-0.4-0.2h-3.9v-1.9h4.4c0.3,0,0.4,0,0.5-0.1c0.1-0.1,0.1-0.2,0.1-0.5v-0.7c0-0.1,0-0.3-0.1-0.4
			c-0.1-0.2-0.2-0.2-0.5-0.2h-5.8c-0.1,0-0.3,0-0.4,0.1c-0.1,0.1-0.2,0.2-0.2,0.4l0,8.9c0,0.1,0,0.3,0.1,0.4
			c0.1,0.1,0.2,0.1,0.4,0.1h6c0.3,0,0.4-0.1,0.5-0.2c0-0.1,0.1-0.2,0.1-0.4v-0.7c0-0.3,0-0.4-0.1-0.5
			C143.6,46.7,143.4,46.6,143.2,46.6z"/>
		<path class="st0" d="M159.4,43.5c-0.1-0.1-0.3-0.2-0.4-0.2c-0.1-0.1-0.3-0.1-0.5-0.2c-0.2-0.1-0.4-0.1-0.6-0.2
			c-0.3-0.1-0.6-0.2-0.9-0.3l-1.4-0.4c-0.2,0-0.3-0.1-0.5-0.3c-0.1-0.1-0.2-0.3-0.2-0.4c0-0.1,0-0.3,0-0.4h0c0-0.1,0.1-0.3,0.2-0.4
			c0.1-0.1,0.2-0.2,0.3-0.3c0.1-0.1,0.2-0.2,0.4-0.2c0.1,0,0.3-0.1,0.4-0.1h0.9c0.4,0,0.6,0.1,0.8,0.3c0.2,0.2,0.3,0.5,0.3,1
			c0,0.1,0.1,0.2,0.1,0.3c0.1,0.1,0.2,0.2,0.4,0.2h0.8c0.2,0,0.4-0.1,0.5-0.2c0-0.1,0.1-0.2,0.1-0.4c0-0.5-0.1-0.9-0.2-1.3
			c-0.2-0.4-0.4-0.7-0.7-1c-0.3-0.2-0.6-0.4-0.9-0.5c-0.3-0.1-0.7-0.2-1.1-0.2h-0.9c-0.4,0-0.7,0.1-1,0.2c-0.3,0.1-0.6,0.3-0.9,0.5
			c-0.3,0.2-0.5,0.5-0.7,0.8c-0.2,0.3-0.3,0.6-0.4,1l0,0c0,0.2-0.1,0.3-0.1,0.4c0,0.1,0,0.3,0,0.4v0.2c0,0.4,0.1,0.8,0.3,1.1
			c0.2,0.3,0.5,0.5,0.8,0.7c0.3,0.2,0.7,0.3,1.1,0.5c0.4,0.1,0.8,0.2,1.2,0.3c0.4,0.1,0.8,0.2,1.2,0.3c0.3,0.1,0.6,0.2,0.7,0.3
			c0,0,0.1,0.1,0.1,0.1c0,0.1,0,0.1,0.1,0.2c0,0.1,0,0.1,0,0.2c0,0.1,0,0.1,0,0.2c0,0,0,0.1,0,0.1c0,0,0,0.1,0,0.1
			c-0.1,0.3-0.2,0.5-0.4,0.7c-0.3,0.2-0.6,0.3-0.9,0.3h-0.9c-0.3,0-0.5-0.1-0.8-0.3c-0.2-0.2-0.4-0.4-0.4-0.6c0-0.1,0-0.1,0-0.2
			c0,0,0-0.1,0-0.1v-0.2c0-0.1,0-0.1,0-0.2c-0.1-0.3-0.2-0.4-0.5-0.4h-0.8c-0.2,0-0.4,0.1-0.5,0.2c0,0.1-0.1,0.2-0.1,0.3l0,0
			c0,0.1,0,0.3,0,0.4c0,0.1,0,0.3,0.1,0.6c0.1,0.3,0.2,0.6,0.4,0.8c0.3,0.4,0.6,0.8,1.1,1c0.5,0.3,1,0.4,1.5,0.4h0.9
			c0.4,0,0.9-0.1,1.3-0.2c0.4-0.1,0.7-0.3,1-0.6c0.1-0.1,0.3-0.3,0.4-0.5c0.1-0.2,0.2-0.4,0.3-0.6c0.1-0.2,0.1-0.5,0.2-0.7
			c0-0.2,0.1-0.5,0.1-0.7c0-0.4-0.1-0.8-0.3-1.1C159.9,44,159.7,43.7,159.4,43.5z"/>
		<path class="st0" d="M167.9,38.8c-0.1-0.1-0.2-0.2-0.5-0.2H161c-0.2,0-0.4,0.1-0.5,0.2c0,0.1-0.1,0.2-0.1,0.4v0.6
			c0,0.2,0,0.4,0.1,0.5c0.1,0.1,0.2,0.1,0.5,0.1h2.2v7.5c0,0.1,0,0.3,0.1,0.4c0.1,0.2,0.2,0.2,0.5,0.2h0.8c0.2,0,0.4-0.1,0.5-0.2
			c0-0.1,0.1-0.2,0.1-0.4v-7.5h2.2c0.3,0,0.4,0,0.5-0.1c0.1-0.1,0.1-0.2,0.1-0.5v-0.6C168,39.1,168,38.9,167.9,38.8z"/>
		<linearGradient id="SVGID_1_" gradientUnits="userSpaceOnUse" x1="4.8603" y1="34.9835" x2="71.0549" y2="34.9835">
			<stop  offset="0.454" style="stop-color:#D7490C"/>
			<stop  offset="1" style="stop-color:#FBBA00"/>
		</linearGradient>
		<path class="st1" d="M53.1,44.8c0,0,0,0.2,0,0.2c0,0.1,0.1,0.2,0.1,0.2l0.1,0.2c0,0-0.1,0-0.1,0l0.2,0.3c0.1,0.2,0.3,0.5,0.4,0.6
			c0.1,0.1,0.2,0.3,0.3,0.4c0.4,0.7,1.7,1.9,2.3,2.1c-0.4-0.2-1.3-1.3-1.3-1.3s0.9,0.8,1.7,0.9c0-0.3,0.3-0.6,0.6-0.6
			c0.2,0.5-0.2,0.5-0.4,0.7c0.2,0.1,0.4,0.1,0.6,0.2l-0.1-0.5c0.5,0.1,1,0.1,1.1,0.7c0.1,0,0.1,0,0.2,0c0-0.1,0.1-0.2,0.1-0.4
			c0.1,0.1,0.3,0.1,0.5,0.1c0.1,0.2,0,0.3-0.2,0.4c0.1,0,0.2,0,0.3,0c0-0.3,0.1-0.5,0.5-0.5c0,0.2-0.2,0.3-0.3,0.5
			c0.1,0,0.2,0,0.2,0c-0.1,0-0.2,0-0.2,0c0.1,0,0.2,0,0.4,0c0.1-0.1,0.3-0.2,0.5-0.2c0.2,0.1,0.1,0.1-0.1,0.2c0.1,0,0.3,0,0.4,0
			c-0.1-0.4,0.4-0.4,0.8-0.4c0-0.2-0.2-0.2-0.2-0.4c-0.2,0.2-0.7,0.2-0.8,0.5c-0.5,0-0.4-0.7-0.5-0.8c0.4-0.1,1,0.7,1.6,0
			c-0.1,0.5,0.2,0.5,0.3,0.9c-0.1,0-0.2,0.1-0.3,0.1c0.2,0,0.3-0.1,0.5-0.1c0,0,0,0,0,0c0,0,0.1,0,0.1,0c0.1,0,0.1,0,0.2,0
			c0.1,0,0.2-0.1,0.4-0.1c0-0.1,0-0.1,0-0.2c0,0,0.1,0.1,0.1,0.1c0.1-0.1,0.3-0.1,0.4-0.2c0.3-0.2,0.7-0.3,1-0.5
			c0-0.1,0.1-0.2,0-0.3c0.2-0.1,0.3,0,0.3,0.1c0.1-0.1,0.3-0.2,0.4-0.3c0,0,0-0.1,0.1-0.1c0,0,0.1-0.1,0.1-0.1l0.2-0.1l0,0
			c0,0,0-0.1,0.1-0.1c0,0,0,0,0.1,0l0,0l0,0l0,0c0,0,0,0,0,0c0.2-0.2,0.5-0.5,0.8-0.8c0,0,0,0,0,0c0-0.2,0.2-0.3,0.3-0.3
			c0.1-0.1,0.1-0.2,0.2-0.2c0,0,0,0,0.1-0.1c-0.4,0-0.8,0-1,0.2c0.1-0.4,0.7-0.5,0.8-1c0.2,0,0.1,0.1,0,0.1c0,0.2,0.3,0.1,0.6,0.1
			c0.2-0.3,0.4-0.6,0.5-0.8c-0.2-0.1-0.3,0.2-0.4-0.4c0.2,0.1,0.4,0.1,0.4,0c0-0.1,0.1-0.2,0.2-0.3c0,0,0.1-0.1,0.1-0.1
			c-0.3,0-0.6,0.1-0.8,0c0.3-0.3,1.5-0.6,1-1.4c-0.2,0.1-0.3,0.2-0.5,0.3c0,0,0,0,0-0.1c-0.1-0.2-0.2-0.3,0-0.6
			c0.1,0.1,0.2,0.3,0.4,0.3c0.4-0.1,0.5-0.4,0.7-0.7c0.1,0,0.1,0.1,0.2,0.2c0.1-0.3,0.1-0.5,0.1-0.8c-0.2,0-0.4,0-0.5,0
			c0-0.3,0.1-0.6,0.2-0.9c-0.3-0.5-0.3,0.3-0.7,0.2c-0.1-0.5-0.1-0.9,0.1-1.2c0.8-0.1,0.5,1.2,1,1.6c0-0.1,0-0.1,0-0.2l0.1-0.3
			c0-0.6,0-1.1,0.1-1.6c0-0.5,0.1-1.2-0.1-2.1c0,0-0.1-0.3-0.1-0.4c0,0,0,0.3-0.1,0.4c0,0-0.1-1.4-0.2-1.7c-0.1-0.2-0.1-0.5-0.2-0.7
			c0,0,0,0,0,0l-0.1,0.1c-0.1,0-0.1,0.1-0.2,0c0-0.2,0-0.2,0.1-0.4c-0.1-0.3-0.2-0.5-0.3-0.6c0,0-0.1,0.1-0.1,0.1
			c-0.4-0.2-0.6-0.6-0.3-1c0-0.1-0.1-0.2-0.1-0.2c-0.2-0.1-0.4-0.1-0.2-0.3c-0.2-0.3-0.4-0.6-0.6-0.9c-0.1-0.1-0.2-0.2-0.3-0.3
			c-0.2-0.1-0.4-0.2-0.3-0.3c0,0,0,0,0,0c0,0-0.1-0.1-0.1-0.1L66,29.1c0-0.1-0.1-0.1-0.1-0.2l-0.1-0.2l-0.2-0.2l-0.2-0.2
			c-0.2-0.2-1-0.9-1-0.9c0,0-0.1,0-0.1-0.1l0-0.1c-0.5-0.4-1-0.7-1.6-1.1c0.2,0.2,0.5,0.4,0.7,0.6c-0.9-0.6-1.7-1-2.4-1.4
			c-0.1-0.1-0.2-0.1-0.3-0.2c-0.1,0-0.2,0-0.3-0.1c0,0,0,0,0,0c-0.6-0.3-1.1-0.5-1.8-0.6c-0.2,0-1.1-0.2-2-0.3
			c-1-0.1-2.2-0.2-2.9-0.1c1.2,0,1.7,0.3,1.7,0.3c-0.4-0.1-2.4-0.2-2.4-0.2c0,0-0.2,0-0.3,0c-0.8,0.1-1.6,0.3-2.4,0.5
			c-0.1,0-1.2,0.4-1.2,0.4c-0.5,0.2-0.9,0.4-1.4,0.6c0,0.1-0.1,0.2-0.1,0.3c0.2,0,1-0.1,1.3-0.3c0.3-0.1,0,0.4-0.1,0.5
			c0.2,0.4,0.5-0.3,0.7,0.1c0,0.3-0.2,0.3-0.4,0.4c0-0.1-0.1-0.1-0.2-0.1c0,0.1,0,0.2-0.1,0.3c-0.2-0.2-0.4,0-0.6,0.1
			c0.3-0.3,0.2-0.6,0.2-0.9c-0.5,0.4-2.2,0.5-1.5,0.8c0.4-0.4,0.8-0.4,1,0.1c0,0.2,0.3,0.5,0,0.7c-0.9-0.2-0.6-0.2-1.4-0.6
			c-0.1-0.3,0.1-0.5,0.2-0.7c0,0-0.1,0.1-0.1,0.1c-0.3,0.1-0.9,0.5-1.4,0.8l0,0c0.3-0.1,0.9,0,1-0.2c0.5,0.1-0.6,0.6,0.3,0.4
			c0.3-0.4-0.1,0.2-0.3,0.3c0.2,0.3-0.3,0.3,0.2,0.5c-0.2,0.7-0.6,0.3-0.6,0.6c-0.1,0-0.1,0-0.1,0c-0.1,0-0.1-0.1,0-0.4
			c0,0,0,0,0.1,0c-0.1-0.5-0.5-0.9-0.6-0.9c-0.1-0.1-0.1-0.2-0.1-0.2c-0.4,0.3-0.5,0.4-0.6,0.4c-0.1,0.1-0.2,0.2-0.3,0.3
			c0,0,0,0,0,0c0.1,0.1,0.1,0.2,0.2,0c-0.1,0.4-0.4,0.5-0.6,0.7c0,0,0,0,0,0c0,0,0,0,0,0c0,0,0,0,0,0c0,0,0,0,0,0c0,0,0,0,0,0
			c0,0,0,0,0,0c0,0,0,0,0,0c0,0,0,0,0,0c0.1,0,0.1,0,0.2,0c0,0.1-0.1,0.3,0,0.3c0,0,0.1,0.1,0.1,0.3c-0.2,0.1-0.3,0.3-0.4,0.4
			c-0.2,0.1-0.6,0.7-0.6,0.7c0,0-0.1,0.2-0.1,0.2c0,0-0.1,0.1-0.1,0.2c0,0-0.1,0.1-0.1,0.1c0,0-0.1,0.1-0.1,0.1l0-0.1
			c0,0,0-0.1,0-0.2c0,0,0,0.1,0,0.1c0,0,0,0,0-0.1c0,0,0,0,0-0.1l0,0c0,0,0-0.1,0-0.1c0-0.1,0.1-0.2,0.1-0.3l0,0c0-0.1,0-0.1,0-0.2
			c0.1-0.1,0-0.2,0.1-0.2c0-0.2,0-0.3,0-0.5l0.1,0c0,0,0,0,0,0c-0.1,0-0.1-0.1-0.1-0.1c0.1-0.1,0-0.2,0-0.3l0.1,0
			c-0.1-0.1,0-0.2,0-0.2c0,0,0.1,0,0.1,0c0,0,0,0,0,0c-0.1-0.1-0.1-0.1-0.1-0.2c0,0,0-0.1,0.1-0.2c-0.2-0.2,0-0.4-0.1-0.6l0.1,0
			c-0.2-0.2,0-0.4-0.1-0.6l0.1,0c0,0,0-0.1,0-0.1c0,0,0,0,0,0c0,0,0-0.1,0-0.1c0,0-0.1,0.1-0.1,0.1c0.1-0.2,0.1-0.4,0.1-0.5
			c0,0,0,0,0,0c0,0,0,0-0.1,0c0,0,0,0,0,0c0,0,0-0.1,0-0.1c0,0,0-0.1,0-0.1c0,0,0-0.1,0-0.1c0,0,0,0-0.1,0c0,0,0-0.1,0-0.1
			c0,0,0-0.1,0-0.1c0,0,0,0,0,0c0,0,0,0,0,0c0,0,0,0,0,0c0,0,0,0,0,0c-0.1-0.1-0.1-0.1,0-0.2c-0.1-0.3-0.1-0.6-0.2-0.9
			c-0.1-0.1-0.1,0.2,0.1,1.1c-0.1-0.5-0.3-1-0.4-1.5c-0.1,0.1-0.3,0.2-0.6,0.3c-0.2-0.6,0.1-0.7,0.5-0.7c-0.1-0.4-0.2-0.8-0.4-1.2
			c-0.2,0.4-0.5-0.2-0.2-0.4c0,0,0,0,0-0.1c0,0,0,0,0,0c0,0-0.1-0.1-0.2-0.1c0-0.1,0.1-0.1,0.1-0.1c-0.1-0.2-0.2-0.4-0.3-0.6
			l0.1,0.4c-0.2-0.4-0.3-0.8-0.5-1.2l-0.1,0.1c-0.1-0.2-0.2-0.4-0.3-0.6c-0.1,0.3-0.3,0.5-0.6,0.6c-0.2,0.5,0.1-0.7,0.6-0.7
			c-0.1-0.3-0.3-0.5-0.5-0.8c-0.3-0.5-0.7-1-1-1.4l-0.5-0.6l-0.1-0.1c0,0-0.1-0.1-0.1-0.2L38,17.5l0,0l0,0c0,0,0,0,0,0
			c-0.1,0-0.1,0,0,0.3c-0.4-0.1-0.1-0.2,0-0.4c-0.1-0.2-0.3-0.3-0.3-0.4c0,0,0,0-0.1,0l0,0.1c0,0-0.1-0.1-0.1-0.1c0,0,0,0,0,0
			c0,0,0,0,0,0c-0.3-0.5-0.7-0.9-1.1-1.3C36,15.3,36,15.2,35.6,15c0.1,0.1,0.4,0.5,0.4,0.5c0,0.1,0.1,0.2,0.2,0.3
			c-1-0.9-1.7-1.5-2.9-2.3c-1.2-0.8-2.2-1.3-2.4-1.5l0.2,0.2c-0.4-0.2-0.7-0.3-1.1-0.5l0.3,0.2c-0.9-0.4-1.7-0.7-2.4-0.9
			c-0.7-0.2-1.3-0.4-2-0.5c-0.3-0.1-0.6-0.1-0.9-0.2c-0.1,0.2-0.1,0.4-0.2,0.5c-0.1-0.2-0.1-0.4,0-0.6c-0.3,0-0.6-0.1-0.9-0.1
			c-0.7-0.1-1.5-0.1-2.5-0.2c0,0,0,0,0,0c0.2,0,0.4,0,0.4,0c-0.1,0-0.2,0-0.4,0c0,0.1-0.1,0.3-0.1,0.4c-0.1-0.1-0.1-0.2-0.1-0.4
			c-0.2,0-0.5,0-0.8,0l-1.2,0c0.1,0,0.5,0,0.8,0c0,0,0,0,0,0c0,0,0,0,0,0c0.5,0,0.8,0,0.1,0.1c0.2,0.3-0.4,0.7-0.4,0.9
			c-0.1-0.1-0.3-0.2-0.5-0.2c0.5,0.3,0.2,0.4,0.2,1c-0.4,0-0.9,0-0.9-0.5c0.5,0,0.4,0.3,0.7,0C19,11.3,19,10.8,19,10.3
			c0,0,0,0-0.1,0c-0.2,0-0.5,0-0.7,0c-0.5,0.1-0.5,0.1-0.6,0.2c-0.1,0.1-0.3,0.1-1,0.3c-0.9,0.2-0.4,0,0-0.1
			c0.2-0.1,0.4-0.1,0.3-0.1c-0.1,0-0.3,0.1-1,0.2c-0.7,0.2-1.4,0.5-2.2,1c-0.2,0.1-0.3,0.2-0.5,0.3c0.2,0,0.4,0,0.4-0.2
			c0.4,0.4-0.6,0.7-0.9,0.5c-0.6,0.3-1.2,0.7-2,1.2c0,0,0,0,0,0c0,0,0.1,0.1,0.2,0.1c0,0.1-0.2,0.2-0.2,0.3c-0.1,0-0.2-0.2-0.3-0.2
			c-0.2,0.2-0.3,0.3-0.3,0.3c0,0,0.1,0,0.2-0.1c0.1,0,0.2-0.1,0,0c-0.1,0.1-0.3,0.2-0.6,0.5c0,0,0,0,0,0c-0.5,0.5-1.2,1.2-1.2,1.2
			l0,0c0,0-0.1,0-0.1,0.1c-0.1,0.1-0.2,0.2-0.2,0.3c0,0,0.1-0.1,0.1-0.1c-0.3,0.4-0.6,0.7-0.9,1.1c0.1,0,0.2,0.1,0.2,0.2l0.3,0
			c-0.6,0.3-0.2,0.7,0.1,1c0.4-0.2,0.8-0.5,1.2-0.7C9.1,17.4,9,17.3,9,17.1c0.2-0.2,0.4-0.2,0.7,0c0-0.2,0-0.4,0-0.6l0.2-0.1
			c0,0,0.1-0.1,0.2-0.2s0.2-0.2,0.5-0.2c0.2,0,0.3,0,0.3-0.2c0.2-0.1,0.5-0.4,0.5-0.5c0.4,0,0.5,0.7,0,0.7c0,0.2,0.2,0.1,0.2,0
			c0.2,0,0.2,0.3,0.2,0.5c0,0,0,0,0,0c0,0,0,0,0.1,0c0.3-0.2,0.2-0.4,0.1-0.8c0.4,0.1,0.4,0.4,0.3,0.7c0.8-0.3,1.6-0.5,2.4-0.6
			c0,0-0.1,0.1-0.2,0.1c1.2-0.2,1.6-0.2,2.2-0.2c0.6,0,1,0,1.5,0.1c0.4,0,0.8,0.1,1.3,0.1c0.5,0.1,1.1,0.1,1.9,0.3
			c0-0.1-0.2-0.2-0.4-0.3c1,0.1,1.8,0.6,2.7,0.9c0.5,0.2,0.9,0.4,1.4,0.7c0.1-0.3,0.3-0.7,0.5-0.7c0,0.5-0.1,0.7-0.3,0.9
			c0.1,0,0.1,0.1,0.2,0.1c0.1-0.1,0.3-0.2,0.4,0c-0.1,0-0.2,0.1-0.3,0.1c0.1,0.1,0.3,0.2,0.4,0.2c-0.4-0.2-0.5-0.2-0.4-0.1
			c0.6,0.3,1.2,0.7,1.7,1.1c0.1,0,0.1,0,0.2,0c-0.3-0.3-0.6-0.5-1-0.7c0.2,0,1.1,0.6,1.2,0.7c0.1,0.2,0.2,0.1,0.2,0.1
			c-0.2-0.4-0.5-0.9-0.4-1.4c0.7,0.3,0.9,1.1,1.1,2l0.1,0.3c0,0,0,0.1,0,0.1c0.5,0.4,0.9,0.9,1.4,1.4c0.6,0.7,1.2,1.5,1.7,2.4
			c0.1,0.3,0.3,0.5,0.4,0.8c0.1,0.5,1.2,4,1.2,4.6c0,0-0.1,0-0.1,0.2c0,0.2,0,0.5,0,0.6c0,0.2,0,0.4,0,0.5c0,0.3,0,0.4,0,0.5
			c0,0.2,0.1,0.3,0,1c0.1-0.3,0.2-1,0.2-1.5c0-0.5,0-0.8,0.1-0.5c0,0.6-0.1,1.3-0.2,2c-0.1,0.7-0.3,1.4-0.5,2
			c-0.1,0.2-0.1,0.3-0.2,0.5c0.1,0,0.1,0,0.2,0c0,0.2-0.1,0.2-0.2,0.1c-0.1,0.2-0.2,0.4-0.2,0.5c0.3,0,0.5,0.1,0.3,0.5
			c-0.1-0.2-0.3-0.1-0.5-0.2c-0.2,0.4-0.4,0.6-0.5,0.7c-0.4,0.7-0.8,1.4-1.3,2.1c0,0.1,0,0.2,0,0.4c-0.1,0-0.2,0-0.3,0.1l0,0
			c0,0-0.1,0-0.1,0c-0.1,0.1-0.2,0.2-0.3,0.3c-0.2,0.2-0.3,0.3-0.5,0.5c0.2,0,0.5,0,0.9,0.1c0.2-0.1,0.3-0.4,0.3-0.7
			c0.5,0.5,0.4,0.5,1.2,0.6c-0.6,0.1-0.4,0.8-0.6,1.2c-0.1-0.1-0.3-0.2-0.5-0.2c0-0.3,0.1-0.6,0.3-0.7c0-0.1-1.4,0.4-1-0.3
			c-0.5,0-0.5,0.4-1,0.4c0.1,0.3,0.3,0.4,0.7,0.3c0.1,0.4-0.2,0.3-0.5,0.4c0,0.1,0.2,0.2,0.2,0.3c0.6,0.2,0.1-0.6,0.7-0.4
			c0,0.5-0.5,1.1-1,0.7c0.6,1,0.6,0.5,0.4,2c-0.2,0-0.3,0-0.3,0.2c-0.6,0-1.2-0.7-0.9-1.2c-0.3,0-0.4,0.1-0.5,0.4
			c-0.3-0.3-0.6-0.5-0.8-0.9c-0.1,0.1-0.5,0.3-0.4,0.2c0.1-0.1,0.3-0.3,0.3-0.3c0,0,0,0,0,0c0,0,0,0,0.1,0c0.2-0.1,0.3-0.2,0.5-0.3
			c0.1-0.2,0.1-0.3,0.3-0.5c0.2,0.1,0.2,0.1,0.2,0.2c0.1-0.1,0.2-0.1,0.3-0.2l0,0l0,0c0,0-0.1,0.1-0.1,0.1c0.5,0.4-0.5,0.7,0,0
			c-0.1,0.1-0.2,0.1-0.2,0.2c-0.1,0.1-0.2,0.2-0.2,0.3c0.2,0.5,0.6-0.3,0.9,0.1c0.5-0.1,0-1,0.7-0.9c0-0.1-0.1-0.1-0.1-0.1l0,0
			c-0.2-0.3-0.5-0.2-0.5-0.2l0,0c-0.4,0-0.9,0.5-1.2,0.5c0,0-0.1,0-0.1,0.1c-0.1,0-0.1,0.1-0.2,0.1c0,0-0.1,0.1-0.2,0.1
			c-0.1,0,0,0-0.1,0.1c0,0-0.2,0.3-0.2,0.3c0,0-0.2-0.2-0.2-0.2c-0.8,0.4-1.6,0.6-2.4,0.7c0,0,0,0,0,0l-0.2,0c-0.1,0-0.2,0-0.3,0
			c0,0.2-0.4,0.3-0.7,0.4c0,0,0,0,0,0c-0.1,0-0.3,0-0.4,0c0-0.1,0.3-0.2,0.5-0.4c-0.3,0-0.6,0-0.9,0c0,0,0,0,0,0l-0.3,0
			c-0.3,0-0.5,0-0.7-0.1c-0.5,0,0.3,0.1,0.1,0.1c-0.4-0.1-0.8-0.2-1.3-0.3c-0.5-0.1-1-0.3-1.5-0.5c-0.3-0.1-0.6-0.3-0.9-0.4
			c-0.2,0-0.3,0.1-0.3,0.2c-0.3-0.1-0.2-0.3,0-0.4c-0.2-0.1-0.3-0.2-0.4-0.3c-0.2,0.1-0.4,0.1-0.6,0.1c0.1-0.1,0.1-0.2,0.1-0.4
			c-0.3-0.2-0.5-0.3-0.6-0.4c-0.1-0.1-0.2-0.2-0.2-0.3c0,0,0,0.1,0,0.2c-0.3,0-0.4-0.3-0.3-0.4c-0.1-0.1-0.2-0.3-0.3-0.4
			c-0.2,0-0.3,0-0.2-0.2c-0.3-0.4-0.7-0.9-0.9-1.5c0.1,0.3,0.3,0.5,0.4,0.8l-0.1-0.1c-0.2-0.3-0.4-0.7-0.5-1
			c-0.2,0.1-0.4,0.1-0.6,0.2c-0.1-0.3-0.5-0.3-0.5-0.7c-0.5-0.1-0.3,0.5-0.8,0.4c-0.1-0.4-0.6-0.4-0.7-0.8c-0.1-0.6,0.6-0.4,0.5-1
			c0.4,0.2,0.3,0.4,0.9,0.1c0,0.3-0.5,0.2-0.3,0.7c-0.3,0-0.4-0.2-0.7-0.1c0,0.7,0.9,0.5,1,0.1c0.2-0.1,0.1,0.3,0.2,0.3
			c0.2,0.1,0.4-0.3,0.7-0.2c0,0,0.2,0.5,0.3,0.5c-0.3-0.9-0.5-1.8-0.5-2.8c0,0,0,0,0,0c-0.2-0.1-0.5-1-0.7-0.5
			c-0.5-0.4,0.3-0.5,0.8-0.7c0-0.1,0-0.1,0-0.2c0-0.1,0-0.1,0-0.2c-0.2-0.1-0.3-0.2-0.4-0.4c-0.1-0.5,0.6-0.2,0.3-0.9
			c0.2-0.5,0.1,0.1,0.2,0.4c0,0.1,0.1,0.1,0.1,0.1c0.1-0.5,0.3-0.9,0.6-1.4c-0.1,0-0.1,0-0.1-0.1c-0.1,0.2-0.2,0.3-0.3,0.4
			c0-0.1,0.1-0.3,0.2-0.5c-0.1-0.1-0.1-0.1-0.1-0.2c-0.8,0.3-1.2,1-1.7,1.6c0.1,0.2,0.4,0.2,0.4,0.5c-0.3,0.3-0.2,0-0.7,0l0,0.3
			c-0.5,0,0.5-1.3,0-0.9c-0.1-0.2,0.6-1.4,1.2-1.2c0.3-0.2,0.2-0.8,0.5-1c0.4,0.4,0.8,0,1.1-0.1c0,0,0-0.1,0.1-0.1
			c0.1-0.1,0.1-0.2,0.2-0.3c-0.2-0.1-0.3-0.2-0.2-0.4c0.2,0,0.3,0.1,0.4,0.1c0,0,0-0.1,0.1-0.1c-0.1-0.4-0.4-0.7,0.3-0.6
			c0,0,0.4-0.1,0.4-0.4c0.1,0.2,0,0.3,0,0.6c0,0,0,0,0,0c0,0,0.1-0.1,0.1-0.1c0-0.1,0.1-0.1,0.1-0.2c0,0,0.1,0,0.1,0
			c0.3-0.3,0.7-0.5,1.1-0.7c0.6-0.3,1.2-0.5,1.9-0.6c0.2,0,0.3,0,0.5-0.1c0.2-0.8-0.8,0.6-0.9-0.7c-0.1,0.1-0.3,0.2-0.3,0.4
			c-0.4,0-0.1-0.6-0.2-0.8c0.2,0,0.2,0.3,0.2,0.5c0.1-0.1,0.4-0.2,0.7-0.2c0.3,0,0.2-0.4,0.3-0.5l0.7-0.1l0.1-0.1c0,0,0,0,0,0
			c0,0.3,0.1,0.5,0.4,0.5c-0.4,0.2-0.3,0.7-0.6,1c0.1,0,0.1,0,0.2,0c0-0.2,0-0.3,0.1-0.3c0.1,0,0.2,0.2,0.2,0.4c0,0,0.1,0,0.1,0
			c0,0,0,0,0,0c0,0,0.1,0,0.1,0c0.2,0,0.3,0,0.5,0.1c0,0,0.2,0-0.1-0.1c0.5,0.1,1,0.3,1.4,0.5l-0.2-0.1c0.3,0.1,0.7,0.3,1,0.5
			c0,0,0-0.1,0-0.1c0.2,0.3,0.5,0.2,0.8,0.2l0.1,0c0.2,0,0.3,0,0.4,0.2c-0.2,0-0.4,0.1-0.6,0.3c0.1,0.1,0.2,0.2,0.3,0.3l0.1,0.1
			l0.1,0.1c0,0,0,0,0,0.1c0,0,0-0.1,0.1-0.1c0.1-0.1,0.2-0.2,0.3-0.2c0.2,0.3,0.3,0,0.9,0c-0.2,0.3-0.4,0.4-0.7,0.4
			c0,0,0,0.1,0.1,0.1c0,0,0,0,0,0c0.1,0,0.1,0,0.2,0l0,0l0.2-0.1l0.5-0.3c0,0,0-0.1,0.1-0.1c0,0,0.1,0,0.1,0l0.1-0.1
			c0,0,0.1,0,0-0.1l-0.1-0.1l-0.2-0.5c-0.3,0.6-0.6-0.4-1.3-0.2c0-0.2,0-0.3,0.2-0.3c0-0.1-0.1-0.2-0.2-0.2
			c-0.2-0.4,0.8,0.5,1.3,0.6l-0.1-0.4c-0.1,0-0.2,0-0.3,0.1c-0.2-0.5,0.2-0.5,0.4-0.6c0,0,0,0,0,0c0-0.1-0.1-0.2-0.1-0.3
			c-0.3-0.2-0.8-0.4-0.7,0.3c-0.8-0.3,0.2-0.5-0.2-1c0.1,0,0.2,0,0.2,0c0,0-0.1-0.1-0.1-0.1c0,0,0,0,0,0c-0.2,0.1-0.3,0.3-0.2,0.5
			c-0.1,0-0.2-0.1-0.3-0.1h0c-0.3-0.1-0.6-0.2-0.8-0.4c0,0,0,0.1,0,0.1l-0.1,0c0.1-0.6-0.3-1.1,0.3-1.2c-0.2-0.2-0.4-0.3-0.7-0.5
			c-0.5-0.3-1-0.6-1.5-0.8C20.1,22,19.6,22,19.6,22c0.2,0.1,0.1,0.1,0.1,0.1c-0.7-0.1-1.5-0.3-2.1-0.3l-0.1,0.1c-0.3,0-0.7,0-1,0
			c-0.4,0-0.7,0.1-1.1,0.2c-0.6,0-2.5,0.8-2.5,0.8l0,0l-0.1,0l-0.2,0.1l-0.1,0.1c0,0,0,0,0,0l0,0l0,0c-0.1,0-0.1,0.1-0.2,0.1
			c0,0,0,0,0.1,0c0,0.2-0.1,0.1-0.2,0c-0.1,0-0.2,0.1-0.3,0.2c-0.1,0.1-0.1,0.2-0.3,0.2c-0.3,0.2-0.7,0.4-1.1,0.7
			c-0.7,0.5-1.3,1.1-1.8,1.6c-0.5,0.5,1.1-1-0.2,0.4c-0.1,0-0.2,0.1-0.4,0.3c0.1,0,0.1,0.1,0.2,0.2c0.2-0.2,0.3-0.5,0.5-0.7
			c0.5,0.2-0.2,0.5-0.1,0.7c0.3,0,0.4-0.2,0.7-0.2c-0.2-0.2,0-1,0.5-1c-0.1,0.3-0.1,0.7-0.3,0.9c0,0.4,0.6,0.1,1,0.1
			c-0.1,0-0.2,0.1-0.3,0.1c-0.1,0-0.2,0.2-0.3,0.2c0,0-0.2,0.2-0.4,0.3c-0.2,0.1-0.4,0.3-0.5,0.4c-0.1,0-0.3,0.2-0.6,0.2
			c-0.2,0-0.4,0-0.5,0c0,0-0.1,0-0.1,0c0,0,0,0,0,0c-0.1,0-0.1,0.1-0.2,0.3c-0.1-0.1-0.2-0.2-0.3-0.4c-0.3,0.4-0.5,0.7-0.6,0.7
			c-0.1,0.2-0.2,0.4-0.3,0.6C6.7,29,7.2,29,7.3,28.9c0.1-0.1-0.1-0.5,0-0.5c-0.1,0,0.6,0.3,0.8-0.3c0.1,0,0.2,0,0.2-0.1h0
			c0.1,0.1,0.2,0.2,0.2,0.3c0,0,0,0,0,0c0,0.1-0.1,0.2-0.1,0.3c0,0-0.1,0.1-0.1,0.1c-0.1-0.1-0.2,0-0.1,0.1c0,0,0,0.1-0.1,0.1
			c0,0.2-0.1,0.3-0.2,0.4c-0.1,0.1-0.4,0.3-0.4,0.4c0,0-0.1,0.3-0.1,0.5c0,0,0,0,0,0.1c0,0,0,0.1,0,0.1c0,0.1,0,0.2,0,0.5
			C7.5,31.1,7,31,7,31.1C6.9,31.2,6.5,31,6.5,31s-0.4,0.2-0.7,0.4c-0.3,0.2-0.6,1.2-0.6,1.2l0,0c0,0,0,0.1-0.1,0.1c0,0,0,0,0,0
			C5.1,33,5,33.4,5,33.9c0.2-0.1,0.3-0.2,0.3-0.5c0.6,0.5,0.2-0.8,1-0.5c-0.2,0.6-0.1,0.8,0.5,0.5c0,0.5-0.9,1.1-1,0.9
			c-0.2,0.2-0.1,0.4,0,0.7c0.3-0.9,1.2-0.4,2-0.7c0,0.7-1,0.4-1.2,0.9c0,0.2,0.5,0,0.5,0.3c0.1-0.4,0.6-0.8,0.7-0.1
			c0,0.1-0.1,0.1-0.2,0.2c0,0.1-0.1,0.1-0.1,0.1c-0.5,0-1.1,0-1.6-0.1v0c0,0-0.3,0-0.6,0c-0.2,0-0.4,0.1-0.6,0.2c0,0.1,0,0.2,0,0.3
			c0.1,0,0.1,0,0.1,0c0,0.1-0.1,0.1-0.1,0.2c0,0,0,0.1,0,0.1c0,0.5,0.1,0.9,0.1,1.4c0,0,0,0,0.1,0.1L5.3,38c0.2-0.4,0.9-0.5,0.8,0.2
			c-0.3-0.1-0.5,0.1-0.7,0.3c0,0,0,0,0,0.1c0,0,0,0.2,0,0.3c0,0.1,0.2,0.4,0.2,0.4c0,0.1,0,0.2,0.1,0.3c0.1-0.1,0.3-0.1,0.5,0.1
			c-0.1,0.1-0.3,0.2-0.4,0.3c0.2,0.6,0.4,1.2,0.6,1.7L6.6,42c0,0,0,0.1,0,0.1c0,0,0.1,0,0.1,0c0,0.1,0,0.2,0,0.3
			c0,0.1,0.1,0.1,0.1,0.2L7.1,43c0,0.1,0.1,0.2,0.1,0.2l0.1,0.2c0.1-0.1,0.3-0.2,0.4-0.3l0.1-0.1c0.2-0.2,0.4-0.4,0.7-0.7
			c-0.1-0.2-0.4-0.1-0.7-0.1c0.2-1.1,0.6-1.7,1.1-2.1c-0.1,0.1-0.2,0.3-0.2,0.5C9,40.5,9,40,9.4,39.9c0.8,0.1,1.4,0.7,1.7,0.3
			c0.5,0.2-0.2,0.5-0.1,0.7c-0.5-0.7-0.7-0.1-1.7-0.5c-0.2,0.1,0,0.5-0.4,0.7c0.1,0,0.3,0.1,0.3,0c0.2,0,0.1,0.2,0.1,0.4
			c0.5-0.5,0.8,0.5,1.2,0c0.8,0.2,0.1,1.3,0.4,1.7c-0.6,0-0.6-0.6-1.4-0.5c0-0.5,0.8-0.5,0.9,0c0.3,0,0.1-0.6,0.3-0.7
			c-0.3-0.3-0.7,0.2-0.9-0.5c-0.2,0.5-0.6,0.9-1.3,0.9c0.5,0.5,0.3,0.9-0.1,1.4c-0.5-0.1-0.4-0.1-0.8,0L7.6,44l0.2,0.4c0,0,0,0,0,0
			l0,0c0,0,0,0,0.1,0c0,0,0,0,0,0c0,0,0,0,0,0l0,0c0,0,0,0,0,0c0,0,0,0,0,0c0,0,0.1,0,0.1,0c0,0,0,0,0,0c0,0,0.1,0,0.1,0
			c0,0.1,0,0.1,0,0.1c0,0,0,0-0.1,0.1c0,0-0.2,0-0.2,0c0.1,0.1,0.4,0.6,0.6,0.8c-0.1-0.1-0.2-0.3-0.2-0.5l0.4,0.5l-0.1,0.1
			c0.1,0.1,0.1,0.1,0.2,0.2c0.4,0,0.6,0,0.2-0.3C9,45,9.7,45.3,9.6,45.7c-0.3,0-0.5,0.1-0.5,0.4c0.1,0.1,0.1,0.1,0.2,0.2
			c0.2-0.1,0.3-0.2,0.5-0.2c0,0.2,0,0.3-0.1,0.4c0,0,0,0,0,0c0,0.1-0.1,0.2-0.1,0.3c0.3,0.3,0.6,0.6,0.9,0.9
			c-0.3-0.4-0.3-0.4-0.5-0.8c0.7,0.8,1.2,1.1,1.9,1.6c0.8,0.6,1.5,1.2,2.4,1.7c0.3,0,1.1,0.5,2.1,0.9c0.3-0.4,0.4-1,0.2-1.6
			c0.2,0,0.5,0,0.5-0.2c0.3,0.1-0.1,0.9-0.1,1.2c0.3,0.3,0.9-0.4,0.5-0.9c0.1,0.1,0.2,0.1,0.3,0.1c0.2,0.1,0.3,0.2,0.4,0.4
			c0.3,0.5,0.2,0.7,0.5,0.8c0.1,0.2,0.2,0.1,0.4,0c0.2,0,0.4-0.1,0.5-0.2c0,0,0.1,0.1,0,0.3c-0.1,0.3-0.2,0.8,0.4,0.9
			c0.1,0,0.2,0,0.3,0.1c0.2,0,0.3,0,0.5,0.1c0,0,0-0.1,0-0.1c0.1,0,0.1,0.1,0.2,0.1c0.2,0,0.3,0,0.5,0l0,0l0.2,0.2
			c0.1,0,0.2,0,0.3,0l0.3,0c0,0,0,0,0,0c0.5,0,1.1,0,1.6,0v0c0.2,0,0.3,0,0.5,0c0,0,0,0,0,0c1.5-0.1,2.9-0.3,4.4-0.9
			c-0.1,0-0.1,0-0.2,0c0,0,0,0,0,0c0,0,0,0,0,0c-0.3,0.1-0.7,0.1-0.1-0.1c0,0,0.1-0.1,0.1-0.1c0-0.3-0.5,0.1-0.5,0.2
			c-0.3-0.1,0.1-0.2,0-0.5c-0.4-0.1-0.4,0.3-0.8,0.2l0-0.3l-0.5,0c0.3-0.6,1.1,0.1,1.2-0.5c0.2,0.1,0,0.2,0,0.3
			c0.4-0.1,0.8-0.3,0.8-0.7c0.3,0,0.4,0.2,0.7,0.1c0,0.2-0.3,0.2-0.3,0c-0.2,0.1-0.3,0.3-0.5,0.4c-0.1,0.5,0.3,0.6,0.1,0.9
			c0.1,0,0.2,0,0.2-0.1c0-0.2,0.3-0.1,0.3-0.3c0.1,0.1,0.1,0.1,0.2,0.2c0.2-0.1,0.4-0.2,0.7-0.2c0-0.1,0-0.2,0-0.3
			c0.1,0.1,0.2,0.2,0.3,0.2c0.6-0.2,1.1-0.5,0.8-0.3c1-0.5,1.1-0.8,1.6-1.1c0.2-0.1,0.5-0.3,0.7-0.4c0,0,0,0,0,0c0,0,0,0,0,0
			c0.1-0.1,0.2-0.1,0.3-0.2c0,0,0,0-0.1-0.1c0,0,0.1,0,0.1,0c0,0,0,0,0.1,0c0-0.1,0-0.2,0.1-0.1c0,0,0,0,0,0c0-0.1-0.1-0.1-0.1-0.1
			c0.1,0,0.3,0.1,0.2-0.1c0,0,0.1,0.1,0.1,0.1c0,0,0,0,0,0c0,0-0.1-0.1-0.1-0.1c0-0.2,0.2-0.1,0.3-0.1c0.1,0,0.1-0.1,0.2-0.1
			c0.1-0.2,0.3-0.3,0.4-0.4l0.1,0.1c0,0,0,0,0,0c-0.1-0.1,0-0.1,0.1-0.1c0,0,0,0,0.1-0.1c0,0,0-0.1-0.1-0.1c0.1,0,0.1,0,0.1,0.1
			c0.2-0.1,0.3-0.2,0.5-0.4l-0.1,0.1c0.6-0.5,1.1-1.1,1.6-1.7c0.3-0.3,0.5-0.6,0.7-0.9c0,0,0,0,0-0.1c0,0,0,0.1,0,0.1
			c0.1-0.1,0.2-0.2,0.3-0.3c0,0,0.2-0.1,0.2-0.2c0.1-0.1,0.2-0.3,0.3-0.4c0,0,0.1,0.1,0.1,0l0-0.1l0,0c0,0,0-0.1,0-0.1
			c0.1-0.2,0.2-0.3,0.3-0.4c0.1-0.2,0.3-0.4,0.3-0.5c0.1-0.1,0.1-0.2,0.1-0.3c0.2-0.3,0.2-0.6,0.3-0.9c0,0,0,0.1,0,0.2
			c0,0.1,0,0.2,0,0.3c0,0.1,0,0.2,0,0.3c0,0,0,0,0,0c0,0.2,0,0.5-0.2,0.7l0,0c0,0,0,0.1,0,0.1c0,0,0,0,0,0c0,0,0,0.1,0,0.1
			c0,0-0.1,0-0.1,0l0,0c0.1,0.1-0.1,0.2,0,0.3c0,0,0,0,0,0c0,0-0.1,0-0.1,0.3s-0.3,0.8-0.3,0.8c0,0.3-0.1,0.3-0.2,0.4c0,0,0,0,0,0
			s-0.3,0.3-0.4,0.5c0,0,0,0,0,0.1c0,0,0,0,0,0c0,0,0,0,0,0c0,0.1,0,0.3,0,0.3c0,0.1-0.2,0.2-0.2,0.2c0,0,0.1,0.2,0.1,0.2
			c0,0,0,0,0.1,0.1c0,0-0.1,0-0.1,0c0,0,0,0,0,0.1c0.1-0.1,0.4-0.2,0.4-0.4l0.1,0c0,0,0.1,0.1,0.2,0.1c0.5,0.3,1-0.1,1.3,0.6
			c0.1-0.1,0.2-0.2,0.3-0.3c0.4,0.2,0.3,0.6,0.1,0.9c-0.3-0.5-0.5,0-1,0.1c0.2-0.2,0-0.2-0.1-0.4c-0.1,0.1-0.3,0.2-0.6,0.2
			c0,0.4,0.1,0.8,0.5,0.7c0,0.2-0.3,0.2-0.6,0.2c-0.2-0.7-0.2-1.3-0.6-1.5c0,0-0.1,0,0,0.1c0.1,0.1,0.2,0.4,0.4,0.8
			c0.1,0.3,0.2,0.6,0.3,0.9c0,0,0.1-0.1,0.2-0.1c0.2-0.3,0,0.1-0.1,0.3c0.1,0.2,0.1,0.3,0.2,0.5c-0.1-0.4,0.3-0.5,0.2-0.9
			c0.2-0.1,0.8,0.1,0.7-0.2c0.5,0.5-0.1,1.2-0.9,1.1c0,0,0,0.1,0.1,0.1c0.2,0.5,0.5,1.1,0.7,1.6c0,0,0.1,0,0-0.1c0,0,0-0.1,0-0.2
			c-0.1-0.1-0.2-0.4-0.3-0.6c0.1,0.2,0.2,0.4,0.3,0.5c0,0,0-0.1,0-0.1c0.3-0.2,0.5-0.4,1-0.4c0.1,0.3,0.4,0.3,0.4,0.7
			c-0.2-0.1-0.3-0.3-0.4-0.5c-0.3,0.4-1,0.5-0.6,1c0,0,0,0,0,0c0.1,0.1,0.1,0.2,0.2,0.4c0.1,0,0.1,0,0.2-0.1c0,0.2,0,0.6,0.2,0.6
			c0.2-0.1-0.2-0.5,0.5-0.5c0,0.2-0.2,0.3-0.2,0.5c0.6-0.1,0.5-0.7,0.8-1c0.3,0.6-0.3,1.2-0.9,1.4c0.2,0.3,0.4,0.7,0.7,1L41.7,53
			c0.2,0.3,0.5,0.6,0.7,0.9l0-0.1c0.3,0.4,0.7,0.7,1,1.1c0.4,0.4,0.7,0.7,1.1,1l0.5,0.4l0.1,0.1l0.1,0.1l0.1,0l0.1,0.1l0,0l0,0
			c0.1,0.1,0.1,0.1,0.2,0.1c0-0.1,0.1-0.2,0.1-0.3c0.3,0.1,0.1,0.2,0.1,0.4c0.1,0.1,0.2,0.1,0.2,0.2c0,0,0,0,0,0L46,56.9
			c0,0,0.1,0,0.1,0.1c0.1-0.1,0.1-0.3,0.1-0.4c0.5-0.2,1,0.3,1.3-0.2c0.2-0.4,0,0.5-0.4,0.3c-0.1,0.4,0.3,0.2,0.5,0.4
			c-0.1,0.3-0.6,0.2-1.1,0.2c0,0,0.1,0.1,0.2,0.1c1,0.6,2.3,1.2,3.4,1.6c0.6,0.2,1.2,0.4,1.6,0.5c-0.3-0.1-0.4-0.4-0.4-0.8
			c0.3,0.1,0.4,0.4,0.4,0.8c0.3,0.1,0.6,0.2,0.7,0.2l-0.2-0.1c0.4,0.1,0.6,0.1,1,0.2L53,59.7c0.8,0.2,1.5,0.2,2.2,0.3
			c0.3,0,0.7,0,1,0c0.1-0.1,0.3-0.2,0.5-0.4c-0.1-0.2-0.3-0.1-0.3,0c-0.4,0,0.2-0.3,0.1-0.5c0.2,0.1,0.3,0.3,0.4,0.5
			c-0.2,0-0.2,0.1-0.3,0.2c0.2,0,0.3,0,0.5,0c0.3,0,0.7,0,1-0.1c0-0.5,0.7-0.8,0.4-1.1c0-0.3,0.4,0.2,0.4-0.3c0.1,0,0.1,0,0.2,0.1
			c0,0.1,0.1,0.1,0.2,0.1c-0.3,0.2-0.5,0.5-0.5,0.9c0.4-0.3,0.8-0.4,0.7,0.1c0.5-0.1,1-0.2,1.6-0.3c0,0,0,0,0,0
			c-0.2,0-0.3,0.1-0.3,0.1c0.1,0,0.2-0.1,0.3-0.1c0,0,0-0.1,0-0.1c0,0,0,0.1,0.1,0.1c0.2-0.1,0.5-0.1,0.7-0.2l0.9-0.3
			c-0.3,0-1.8,0.5-0.7,0.1c0.4-0.1,0.3-0.1,0.2-0.1c-0.1,0-0.1,0,0.6-0.3c0.2,0,0.4-0.1,0.6-0.1c0.4-0.2,0.4-0.2,0.5-0.3
			c0.1-0.1,0.2-0.1,0.8-0.4c0.7-0.3,0.3-0.1,0,0.1c-0.1,0.1-0.3,0.2-0.2,0.2c0,0,0.3-0.1,0.8-0.4c0.4-0.2,0.7-0.5,1.1-0.8
			c-0.2,0,0.1-0.2,0.4-0.3c0.1-0.1,0.1-0.1,0.2-0.2c0.1-0.1,0.2-0.2,0.3-0.3c0-0.1-0.1-0.1-0.1-0.2c0.1,0.1,0.1,0.1,0.2,0.1
			c0.1-0.1,0.1-0.1,0.2-0.2c-0.5-0.5,0.9-0.3,0.7-0.9c0,0.1,0.1,0.1,0.1,0.1c0.2-0.2,0.4-0.4,0.6-0.7c0.3-0.4,0.4-0.6,0.4-0.6
			c0,0-0.1,0-0.1,0.1c-0.1,0.1-0.1,0.1,0,0c0.1-0.1,0.4-0.3,0.7-0.9c-0.2,0.2-0.4,0.4-0.6,0.6c0.4-0.5,0.8-1,1.1-1.5
			c0.1-0.1,0.1-0.2,0.1-0.3c0,0,0,0.1-0.1,0.1c0.3-0.5,0.5-1,0.7-1.6c-0.1,0-0.1,0-0.2,0.1c-0.2-0.2-0.2-0.3-0.1-0.6
			c-0.4,0.1-0.5,0.4-0.7,0.7c-0.5-0.2,0.2-0.5,0.2-0.8c0,0,0,0,0,0c-0.1,0.1-0.2,0.2-0.3,0.3c0,0,0,0,0,0c-0.3,0.3-0.5,0.5-0.8,0.8
			c-0.1,0.1-0.2,0.2-0.4,0.3c0.2,0.1,0.4,0.3,0.4,0.6c0.1,0,0.1-0.2,0.3-0.2c-0.1-0.1-0.3-0.2-0.5-0.2c0.4-0.1,0.9-0.6,1.1-0.4
			c-0.3,0.5-0.4,1.1-1.3,1c0.2-0.5-0.1-0.5-0.1-0.7c-0.1,0.1-0.3,0.2-0.4,0.3c0.2,0.1,0.1,0.6-0.2,0.4l0-0.3
			c-0.1,0.1-0.2,0.2-0.4,0.3c0.2,0.1,0.3,0.1,0.1,0.3c-0.1,0-0.1-0.2-0.2-0.3c-0.1,0.1-0.2,0.1-0.2,0.1c0,0-0.1,0-0.1,0.1
			c0,0.1,0,0.3-0.2,0.5c-0.2,0-0.3-0.1-0.3-0.2c-0.3,0.2-0.7,0.4-1,0.5c0,0.1-0.1,0.2-0.3,0.1c-0.1,0-0.1,0.1-0.2,0.1
			c0,0.1-0.1,0.2-0.1,0.4c-0.2,0.1-0.3-0.1-0.3-0.2c0,0,0,0,0,0c-0.1,0.1-0.1,0.3-0.4,0.3c0-0.1,0-0.1,0-0.1
			c-0.2,0.1-0.4,0.1-0.6,0.2c0,0-0.1,0-0.1,0c0.1,0.3-0.1,0.5-0.4,0.5l0.1,0.4c0.5-0.6,0.3-0.1,0,0.3c-0.4-0.1-0.5-0.6-0.8-0.9
			c0,0,0,0,0,0l0,0c-0.1-0.1-0.1-0.1-0.2-0.1c-0.1,0-0.2,0-0.4,0.1c-0.4,0.1-0.7,0.1-1.2,0.1c-0.4,0-0.9,0.1-1.6,0.1
			c0.2,0,0.3,0,0.5,0c-0.8,0.1-1.7,0-2.5-0.1c-0.8-0.1-1.6-0.3-2.3-0.5c0.4,0.1,0.5,0.1,0.3,0c-1.6-0.4-3-1.1-4.4-2
			c-0.7-0.5-1.3-1-1.9-1.6c-0.6-0.6-1.1-1.3-1.6-2.1c0-0.1-0.1-0.1-0.1-0.2c-0.1-0.1-0.3-0.1-0.3-0.1c-0.2,0-0.3,0-0.3,0.2
			c-0.2-0.1-0.3-0.3-0.4-0.5c0.2,0,0.3,0,0.4,0l0.1,0c0.1,0,0.2,0,0.3-0.1c0-0.1-0.1-0.2-0.1-0.3l-0.1,0c-0.4-0.8-0.3-0.9-0.3-1
			c0,0,0.1-0.1-0.3-0.3c0-0.1,0.1-0.2,0.2-0.3c-0.1-0.2-0.1-0.4-0.1-0.6c0-0.2-0.1-0.3-0.1-0.4c-0.1-0.2-0.1-0.2-0.2-0.8
			c0,0.3,0,0.7,0.1,1.1c0.1,0.4,0.2,0.7,0,0.5c-0.1-0.5-0.2-0.9-0.2-1.5c-0.1-0.6-0.1-1.2,0-1.8c0.1-1.1,0.3-2,0.5-2.1
			c0.1-0.6,0.3-1.1,0.5-1.7c-0.1,0-0.1,0.1-0.1,0.2c-0.2,0-0.2-0.2-0.2-0.4c0.2-0.1,0.3,0.1,0.3,0.2c0.1-0.2,0.2-0.4,0.3-0.6
			c0,0,0,0,0,0c0-0.1,0.1-0.2,0.2-0.3c0-0.1,0.1-0.1,0.1-0.2c0.5-0.9,1.1-1.7,1.9-2.4c0.5-0.5,1-0.8,1.6-1.1c0.5-0.2,1.6-0.8,3.1-1
			h0c0.1,0,0.1,0,0.2,0c0,0,0,0,0,0c0,0,0.1,0,0.1,0c0,0,0.1,0,0.1,0c0.1,0,0.2,0,0.4,0c0.1,0,0.3,0,0.4,0c0.1-0.1,0.2-0.1,0.3-0.1
			c0,0,0,0.1,0,0.1c0.2,0,0.4,0,0.6,0c0.2-0.2,0.6-0.1,0.6-0.4c0.1-0.1,0,0.2,0.1,0.5c0,0,0.1,0,0.1,0c0.2,0,0.4,0.1,0.6,0.1
			c0.3-0.3,0.4-0.5,0.9-0.8c0,0.1,0,0.1-0.1,0.2c0.1,0.3,0.5,0,0.6,0.2c0,0.2-0.1,0.3-0.1,0.4c0.3,0.1,0.6,0.2,0.8,0.4
			c0-0.1,0-0.3-0.1-0.4c0.2,0.1,0.4,0.3,0.2,0.5c0,0,0.1,0,0.1,0.1c0,0-0.1,0-0.1-0.1c0,0,0,0,0,0c-0.1,0-0.1,0-0.1-0.1
			c0,0,0,0-0.1,0c-0.2-0.1-0.6-0.3-0.8-0.4c-0.1,0.1-0.1,0.2-0.2,0.4c0.1,0,0.1,0,0.2,0.1c0.1-0.1,0.1-0.1,0.2-0.1
			c0,0.1,0,0.1,0,0.2c0.3,0.1,0.5,0.1,0.6,0.2c0.7,0.4,1.5,1,2.1,1.8c-0.2-0.2-0.3-0.4-0.5-0.5l0.1,0c0.3,0.3,0.5,0.5,0.7,0.8l0,0
			c0.4,0.5,0.7,1.1,1,1.8c-0.1-0.3,0.3-0.4,0.5-0.5c0.1,0.4-0.1,0.5-0.5,0.5c0.1,0.3,0.2,0.7,0.3,1.1c0.2,0,0.3,0,0.6,0
			c-0.1,0.4,0.1,0.3-0.1,0.7h0c0.2-0.2,0.4-0.4,0.7-0.5c0.3,0,0.6,0,0.6,0.4c-0.5,0.1-0.9,0.1-1.3,0.1c0,0,0,0,0,0c0,0,0,0,0,0
			c-0.1,0-0.3,0-0.4,0.1c0,0.3,0,0.5,0,0.8l-0.1,1l0.1,0v0c0,0,0.1,0,0.1,0c0-0.1,0-0.1,0-0.2c0,0.1,0,0.1,0,0.2
			c0.2,0,0.4,0,0.6,0.1c0.1-0.6-0.4-0.2-0.4-0.7c0.1,0.1,0.6,0.3,0.4-0.2c0.5,0.1,0,0.7,0,1.1c-0.1,0.1-0.2,0.2-0.3,0.3
			c0,0-0.1,0-0.1-0.1c0,0.1,0,0.2,0,0.2c-0.1,0.2,0,0.1,0.1,0.3c-0.2,0-0.4,0-0.6-0.1c0,0.1,0,0.1-0.1,0.2c-0.2,0.5-0.4,0.8-0.3,0.7
			c0-0.1,0.2-0.5,0.4-0.9c-0.1,0-0.1,0-0.2,0c-0.1,0.2-0.2,0.4-0.3,0.6c0.2-0.3,0.2-0.3,0.2-0.3c0,0,0.1-0.1,0,0
			c0,0.1,0,0.2-0.1,0.2c-0.1,0.2-0.3,0.5-0.6,0.8c-0.3,0.3-0.5,0.7-0.9,1c0,0,0.1,0.1,0.1,0.2c-0.2,0.1-0.3,0-0.3,0
			c-0.4,0.3-0.8,0.6-1.3,0.7c-0.5,0.2-1.1,0.3-1.6,0.4c-0.1,0.1-1,0-1,0c-0.3,0-0.5-0.1-0.8-0.2c0,0,0,0.1-0.1,0.2
			c-0.1,0-0.3-0.2-0.3-0.4c-0.1,0-0.1-0.1-0.2-0.1c-0.1,0-0.2-0.1-0.3-0.1c0,0,0,0.2-0.1,0.3c-0.1,0.1-0.2,0-0.2-0.1
			c-0.1,0-0.1-0.1-0.1-0.1c0,0-0.1,0-0.1-0.1c0,0,0,0.1,0,0.1c-0.2-0.1-0.2-0.3-0.5-0.2c0-0.1,0-0.2,0.1-0.2
			c-0.1-0.1-0.2-0.1-0.3-0.2c0,0,0,0-0.1,0L54,44.7l-0.1,0.2l-0.4,0.3l0.3-0.4l0.2-0.2l0.1-0.1c0,0,0-0.1,0.1-0.1
			c0.1,0.1,0.3,0.2,0.4,0.3c0.1,0,0.2,0.1,0.3,0.2c0.1,0,0.1-0.1,0.1-0.1l-0.1-0.1c-0.1-0.1-0.2-0.1-0.3-0.2l-0.5-0.4
			c0,0,0,0.1-0.1,0.1l-0.2,0l-0.2-0.1l-0.2,0c0,0,0.1,0.3,0,0.4c0,0-0.2-0.1-0.2-0.1C53.1,44.5,53.1,44.8,53.1,44.8z M61.3,44.7
			c0-0.2,0.1-0.3,0.4-0.3C61.6,44.6,61.5,44.7,61.3,44.7z M68.6,40.9l0,0.3l-0.3,0l0-0.3L68.6,40.9z M69.3,38.1
			c0.1,0,0.2,0.1,0.3,0.1C69.5,38.5,68.9,38.3,69.3,38.1z M66.5,44.3c0.1,0,0.1,0,0.2,0.1l0,0.3c-0.3,0-0.3,0.2-0.6,0.2l-0.1-0.4
			C66.3,44.6,66.4,44.6,66.5,44.3z M64.5,47.1c-0.2-0.2-0.3-0.7,0.2-0.8C64.3,46.6,64.7,46.8,64.5,47.1z M65.7,45.4
			c0.4,0,0.2,0.7-0.1,0.3C65.6,45.6,65.8,45.5,65.7,45.4z M65.7,46.1l-0.3,0c0-0.1-0.1-0.1-0.2-0.1C65.1,45.8,65.9,45.7,65.7,46.1z
			 M65.3,45c0.6,0.3-0.3,0.5-0.4,0.6C64.5,45.5,65.1,45.1,65.3,45z M61.4,25.9c-0.2-0.1-0.8-0.5-0.3-0.3c0.2,0.1,0.5,0.3,0.9,0.5
			c0.3,0.2,0.6,0.4,0.6,0.4c-1-0.6-1.8-0.8-1.9-1C60.9,25.7,61.1,25.8,61.4,25.9z M60.1,25.2c0.4,0.1-0.1,0.5-0.4,0.5
			c-0.3-0.3,0-0.2-0.1-0.6c0-0.1-0.1-0.1-0.1-0.1C59.6,25.1,60.1,25.6,60.1,25.2z M58.6,26.3c0.5-0.1,0.9-0.1,1.2,0.1
			c0.1-0.5-0.5-0.1-0.4-0.5c0.3-0.2,0.5,0.4,0.6-0.1c0.4,0.7-0.9,0.7-0.9,1.4c-0.2,0-0.5-0.6-0.4,0.1C58.3,27.2,58.9,26.7,58.6,26.3
			z M56,32C56,32,56,32,56,32C56,32,56,32,56,32L56,32z M14.1,12c0.6,0.1-0.2,0.3-0.2,0.5C13.4,12.3,14.1,12.1,14.1,12z M13.8,13
			c-0.1-0.4,0.3-0.5,0.7-0.5C14.5,12.9,14.1,13.3,13.8,13z M15.4,13.8c-0.4,0.1-0.3-0.3-0.5-0.3c0-0.2,0.2-0.1,0.2,0
			c0.1-0.1,0.3-0.2,0.5-0.2C15.4,13.4,15.4,13.6,15.4,13.8z M15.6,11.4c-0.1,0-0.1,0,0.2-0.1c0.2-0.1,0.4-0.1,0.6-0.2
			c0.1,0,0.2,0,0.2,0C16.3,11.2,16,11.3,15.6,11.4z M19.6,12.1c-0.2-0.5,0.2-0.5,0.1-0.9c0.4,0,0.2,0.1,0.2,0.3
			c0,0.2,0.3,0.1,0.5,0.2C20.4,12.1,20,12.1,19.6,12.1z M20.7,14.8c-0.5-0.2,0.3-0.7,0.7-0.7C21.4,14.8,20.8,14.6,20.7,14.8z
			 M21.6,15.6c-0.5,0.2-0.3-0.4-0.4-0.7C21.5,15,21.6,15.3,21.6,15.6z M23.1,15.3c0.1-0.3,0.5-0.2,0.3-0.7c0.2,0,0.1,0.3,0.4,0.3
			C23.5,15.1,23.5,15.6,23.1,15.3z M24.7,12c-0.2,0-0.2-0.4-0.2-0.7C25.2,11.2,24.6,11.6,24.7,12z M25.5,11.6
			c-0.7,0-0.5-0.4-0.4-0.8C25.5,10.8,25.6,11.2,25.5,11.6z M29.9,14.2c-0.6-0.1-0.1-0.5,0-0.9C30.4,13.5,29.7,13.8,29.9,14.2z
			 M30.2,13.2c-0.5-0.4,0.3-0.4,0.3-0.5C31.2,12.9,30.2,12.9,30.2,13.2z M32.1,15c0.1-0.6-0.2-0.8-0.2-1.4c0.4-0.1-0.1,0.8,0.5,0.5
			c0.1,0.5-0.4,0.8,0.4,0.7C32.7,15.3,32.6,15,32.1,15z M33,14.3l0-0.5C33.4,13.5,33.5,14.5,33,14.3z M20,26C19.9,26,19.9,26,20,26
			C19.9,26,19.9,26,20,26z M29.5,50.7l0-0.5C30,49.9,30,51,29.5,50.7z M35.4,46.6c-0.2-0.1,0-0.2,0-0.3c0-0.2-0.2-0.1-0.3-0.2
			c0.2-0.7,0.2,0,0.7,0C35.8,46.5,35.4,46.3,35.4,46.6z M40.3,46.2c-0.2,0-0.2-0.2-0.2-0.4c-0.2,0.3-0.4-0.1-0.4,0.2
			c-0.1-0.1-0.1-0.2-0.1-0.2c0,0,0,0,0-0.1c0.1-0.2,0.5,0,0.8,0l0,0.3C40.3,46.1,40.3,46.1,40.3,46.2z M42.4,27.1
			c-0.1,0-0.2-0.2-0.2-0.3C42.5,26.2,42.6,27.1,42.4,27.1z M56.8,58.8c-0.2-0.1,1.2-0.5,1.2,0.3C57.6,59.5,57.4,58.6,56.8,58.8z
			 M59.3,59.2c-0.3,0-0.1-0.7,0.2-0.6c0-0.3-0.2-0.4-0.5-0.4c0.2-0.3,0.3-0.7,0.6-0.8c0-0.1-0.2-0.1-0.3-0.1c0-0.2,0.6-0.3,0-0.3
			c0.2-0.8,0.5,0.5,0.9,0.5C60.2,58.3,59.7,58.6,59.3,59.2z M62.1,58.9c-0.5-0.4-1,0.1-1.6,0.3c-0.1-0.1,0.1-0.4,0.2-0.9
			c0.3,0.5,0.5,0.3,1,0C61.8,58.6,62.1,58.5,62.1,58.9z M63.2,55.8c-0.1-0.3,0.1-0.3,0.1-0.6c0.2-0.1,0.3,0.1,0.3,0.3
			c0.3,0,0.3-0.2,0.6-0.2C64.1,55.8,63.7,56,63.2,55.8z M65.6,56.3c0.2,0.2,0.5,0.5-0.1,0.6c-0.1-0.2,0.1-0.7-0.2-0.7
			c0.2-0.1,1.3-0.7,1.3,0C66.1,56.1,65.9,56.1,65.6,56.3z"/>
	</g>
	<g>
		<path class="st0" d="M172.6,43.8c-0.4,0-0.7-0.1-1-0.2c-0.3-0.1-0.6-0.3-0.8-0.5c-0.2-0.2-0.4-0.5-0.5-0.8c-0.1-0.3-0.2-0.7-0.2-1
			c0-0.4,0.1-0.7,0.2-1c0.1-0.3,0.3-0.6,0.5-0.8c0.2-0.2,0.5-0.4,0.8-0.5c0.3-0.1,0.6-0.2,1-0.2c0.4,0,0.7,0.1,1,0.2
			c0.3,0.1,0.6,0.3,0.8,0.5c0.2,0.2,0.4,0.5,0.5,0.8c0.1,0.3,0.2,0.7,0.2,1c0,0.4-0.1,0.7-0.2,1c-0.1,0.3-0.3,0.6-0.5,0.8
			c-0.2,0.2-0.5,0.4-0.8,0.5C173.3,43.7,172.9,43.8,172.6,43.8z M172.6,39.1c-0.3,0-0.6,0.1-0.8,0.2c-0.2,0.1-0.5,0.3-0.6,0.4
			c-0.2,0.2-0.3,0.4-0.4,0.7c-0.1,0.3-0.1,0.5-0.1,0.9c0,0.3,0,0.6,0.1,0.9c0.1,0.3,0.2,0.5,0.4,0.7c0.2,0.2,0.4,0.3,0.6,0.4
			c0.2,0.1,0.5,0.2,0.8,0.2c0.3,0,0.6-0.1,0.8-0.2c0.2-0.1,0.5-0.3,0.6-0.4c0.2-0.2,0.3-0.4,0.4-0.7c0.1-0.3,0.2-0.5,0.2-0.9
			c0-0.3-0.1-0.6-0.2-0.9c-0.1-0.3-0.2-0.5-0.4-0.7c-0.2-0.2-0.4-0.3-0.6-0.4C173.1,39.1,172.9,39.1,172.6,39.1z M172.9,39.7
			c0.1,0,0.2,0,0.2,0.1c0.1,0,0.1,0.1,0.2,0.1c0.1,0.1,0.1,0.1,0.1,0.2c0,0.1,0.1,0.2,0.1,0.2c0,0.1,0,0.3-0.1,0.3
			c-0.1,0.1-0.2,0.2-0.3,0.2c0,0.1,0.1,0.2,0.1,0.3c0,0.1,0.1,0.2,0.1,0.3c0.1,0.2,0.1,0.3,0.2,0.5c0.1,0.2,0.1,0.3,0.2,0.5
			c0,0.1,0,0.2-0.1,0.2h-0.3c0,0-0.1,0-0.1,0c0,0,0,0,0-0.1l-0.5-1.4c-0.1,0.1-0.2,0.1-0.4,0.2c-0.1,0.1-0.2,0.1-0.4,0.2v0.9
			c0,0,0,0.1,0,0.1c0,0,0,0-0.1,0h-0.3c0,0-0.1,0-0.1,0c0,0,0-0.1,0-0.1v-2.7c0,0,0-0.1,0-0.1c0,0,0,0,0.1,0H172.9z M172,40.2V41
			c0.1,0,0.2-0.1,0.3-0.1c0.1-0.1,0.2-0.1,0.3-0.2c0.1-0.1,0.2-0.1,0.3-0.2c0.1-0.1,0.1-0.1,0.1-0.1v0c0,0,0,0,0-0.1
			c0-0.1,0-0.1-0.1-0.1H172z"/>
	</g>
</g>
</svg>
